<svg aria-hidden="true" style="position:absolute;width:0;height:0" xmlns="http://www.w3.org/2000/svg" overflow="hidden"><defs>
<symbol id="telegram" viewBox="0 0 44 32"><path fill="var(--color1, #fff)" d="M17.343 21.048l-.675 8.86c.966 0 1.384-.387 1.885-.852l4.527-4.038 9.381 6.412c1.72.895 2.933.424 3.397-1.477l6.157-26.929.002-.002c.546-2.374-.92-3.302-2.596-2.72L3.227 13.235c-2.47.895-2.433 2.18-.42 2.762l9.253 2.686L33.554 6.131c1.011-.625 1.931-.279 1.175.346l-17.386 14.57z"/></symbol>
<symbol id="facebook" viewBox="0 0 16 32"><path fill="var(--color1, #fff)" d="M14.143 15.972h-4.034v14.865H3.997V15.972H1.09v-5.224h2.907V7.367c0-2.418 1.142-6.203 6.166-6.203l4.527.019v5.071h-3.285c-.539 0-1.296.271-1.296 1.424v3.075h4.567l-.534 5.219z"/></symbol>
<symbol id="github" viewBox="0 0 32 32"><path fill="var(--color1, #fff)" d="M16 0C7.212 0 0 7.212 0 16c0 7.499 5.262 14.312 12.25 16v-5.293c-.692.152-1.33.156-2.034-.052-.946-.279-1.714-.909-2.284-1.869-.364-.613-1.008-1.278-1.68-1.23l-.165-1.868c1.453-.124 2.711.886 3.457 2.14.332.558.713.884 1.203 1.029.473.14.982.072 1.574-.137.149-1.186.692-1.63 1.102-2.255v-.001c-4.167-.622-5.828-2.832-6.488-4.578-.874-2.317-.405-5.212 1.14-7.041.03-.036.084-.129.063-.194-.708-2.139.155-3.909.187-4.097.817.242.95-.243 3.551 1.337l.449.27c.188.112.129.048.317.034A13.544 13.544 0 0116 7.723c1.136.015 2.273.178 3.404.484l.145.015c-.013-.002.04-.009.127-.062 3.248-1.968 3.132-1.324 4.003-1.608.032.188.883 1.987.182 4.099-.095.291 2.816 2.956 1.203 7.235-.659 1.746-2.32 3.957-6.487 4.578v.001c.534.814 1.176 1.247 1.173 2.927V32C26.738 30.312 32 23.499 32 16c0-8.788-7.212-16-16-16z"/></symbol>
<symbol id="arrow" viewBox="0 0 37 32"><path stroke="var(--color2, #d41443)" stroke-width="7.382" d="M0 16h32m0 0L18.667 2.667M32 16L18.667 29.333"/></symbol>
<symbol id="apples" viewBox="0 0 32 32"><path fill="var(--color3, #ffb8ca)" d="M23.692 11.385l.909.161.192-1.084h-1.101v.923zm-3.384 19.077v.923h.774l.135-.762-.909-.161zm-14.77 0l-.906.175.145.748h.762v-.923zM1.846 11.385v-.923H.727L.94 11.56l.906-.175zm.298 1.538zm22.471 17.539l.046-.922-.049-.002-.049.003.051.922zm.308-7.385l-.683.621.603.663.681-.583-.601-.701zm2.555-4.948a.924.924 0 00-1.418-1.182l1.418 1.182zM6.154 7.077l-.054.921.027.002h.027v-.923zm.615 0V8h.696l.191-.669-.888-.254zm4.923-2.769zm5.231 2.769l-.537.751.588.42.549-.471-.601-.701zm-3.077-.923zm5.247-4.059a.923.923 0 00-.648-1.728l.648 1.729zM6.121 1.166A.923.923 0 104.34.681l1.781.486zm7.351 5.314zm7.887 15.515zM19.747 26.1zm.561 3.438H5.539v1.846h14.769v-1.846zm-13.863.748L3.05 12.748l-1.813.351 3.395 17.538 1.813-.351zM3.05 12.748l-.298-1.538-1.813.351.298 1.538 1.813-.351zm19.733-1.525l-.273 1.538 1.818.322.273-1.538-1.818-.322zm-21.561 1.74c.094 2.181 1.356 4.188 3.122 5.72 1.776 1.54 4.145 2.68 6.657 3.111 2.517.433 5.224.162 7.629-1.186 2.416-1.354 4.441-3.746 5.665-7.391l-1.75-.588c-1.101 3.278-2.858 5.271-4.818 6.368-1.97 1.104-4.233 1.352-6.413.977-2.186-.376-4.244-1.371-5.76-2.687-1.526-1.324-2.422-2.894-2.487-4.405l-1.844.079zm20.549 9.858a1.434 1.434 0 011.003-.13c.371.088.869.35 1.466 1.006l1.366-1.242c-.771-.848-1.577-1.365-2.407-1.561a3.28 3.28 0 00-2.252.274l.824 1.652zm3.753.957c.533-.457 1.29-.913 1.993-1.057.34-.069.627-.057.861.023.222.076.461.233.688.568l1.53-1.034c-.433-.641-.988-1.066-1.622-1.282-.621-.212-1.254-.2-1.825-.084-1.12.228-2.156.889-2.826 1.464l1.201 1.402zm3.908 1.995c-.181.958-.588 1.94-1.311 2.651-.697.686-1.767 1.199-3.46 1.115l-.092 1.844c2.158.108 3.746-.56 4.847-1.643 1.074-1.057 1.604-2.43 1.83-3.625l-1.814-.343zm-3.586-2.696c0-.448.132-1.372.425-2.381.295-1.014.713-1.973 1.207-2.567l-1.418-1.182c-.736.883-1.241 2.13-1.562 3.233-.322 1.11-.498 2.216-.498 2.896h1.846zm-24-10.769h.923v-1.846h-.923v1.846zm1.78-1.266c-.267-.668-.376-1.523-.119-2.111.114-.261.31-.497.668-.671.377-.183.98-.318 1.924-.262l.108-1.843c-1.148-.068-2.091.082-2.837.444a3.152 3.152 0 00-1.555 1.593c-.543 1.243-.252 2.665.096 3.535l1.714-.686zM6.154 8h.615V6.154h-.615V8zm1.503-.669c.182-.636.609-1.571 1.237-2.136.299-.269.613-.426.948-.466.331-.039.783.026 1.385.377l.93-1.595c-.875-.511-1.726-.71-2.53-.616-.8.094-1.456.467-1.967.926-.992.892-1.55 2.202-1.778 3.002l1.775.507zm-4.888 4.977h10.154v-1.846H2.769v1.846zm19.385 0h1.538v-1.846h-1.538v1.846zm.882-.652c.229-.744.453-1.92.377-3.078-.074-1.13-.459-2.503-1.725-3.226l-.916 1.603c.458.261.739.838.798 1.743.057.878-.118 1.825-.3 2.414l1.765.543zm-1.347-6.304c-1.171-.669-2.37-.54-3.3-.206-.919.33-1.663.884-2.066 1.23l1.201 1.402c.315-.27.863-.669 1.488-.894.613-.22 1.209-.244 1.761.071l.916-1.603zm-4.229.974c-.366-.261-.989-.689-1.662-.971-.61-.255-1.609-.538-2.464.031l1.024 1.536c.015-.01.194-.087.726.135.469.196.949.519 1.302.771l1.073-1.502zm-4.537 5.982h1.538v-1.846h-1.538v1.846zm1.539 0h7.692v-1.846h-7.692v1.846zm3.376-5.353c-.092-.69-.119-1.861.097-2.916.229-1.118.651-1.754 1.158-1.944L18.445.366c-1.462.548-2.066 2.066-2.319 3.302-.266 1.298-.232 2.682-.118 3.53l1.83-.244zm-10.916-.39c-.517-.776-1.448-3.024-.801-5.399L4.34.68c-.829 3.041.332 5.838 1.046 6.909l1.536-1.024zm6.412-1.179a2.843 2.843 0 00-.552.481l1.379 1.228c.059-.067.125-.124.197-.172l-1.024-1.536zm-2.107-.281a2.963 2.963 0 011.369 1.67l1.75-.588a4.812 4.812 0 00-2.189-2.676l-.93 1.595zm1.37 1.67c.241.717.253 1.538.126 2.319-.127.783-.383 1.451-.601 1.833l1.603.916c.34-.595.662-1.478.82-2.452.159-.976.166-2.119-.198-3.204l-1.75.588zm9.913 5.987l-1.556 8.769 1.818.322 1.556-8.769-1.818-.322zM19.745 28.35l-.346 1.95 1.818.322.346-1.95-1.818-.323zm4.819 1.19c-.889.049-2.283-.292-3.15-1.552l-1.521 1.047c1.327 1.928 3.428 2.423 4.773 2.348l-.102-1.843zm-3.15-1.552c-.337-.49-.618-1.147-.755-2.029l-1.824.283c.175 1.129.548 2.053 1.058 2.793l1.521-1.047zm7.652-4.676c.432.64.541 1.535.366 2.461l1.814.343c.231-1.224.142-2.664-.651-3.838l-1.53 1.034zm-8.119-2.143c-1.962.979-2.381 3.341-2.112 5.072l1.824-.283c-.22-1.416.224-2.694 1.112-3.137l-.824-1.652z"/></symbol>
<symbol id="heart" viewBox="0 0 32 32"><path fill="none" stroke="var(--color3, #ffb8ca)" stroke-width="1.882" d="M17.882 22.902v8.157h-3.765v-8.157m3.765 0h-3.765m3.765 0c2.596-1.598 7.354-5.493 9.74-9.726m-13.504 9.726c-2.51-1.882-7.737-5.374-9.986-9.726m0 0c-1.191-2.305-1.636-4.783-.681-7.216C6.212-1.067 12.967 2.404 16 5.019c2.719-2.928 9.035-6.839 12.549.941 1.026 2.272.436 4.799-.926 7.216m-23.491 0c.819-.105 2.519-1.067 2.77-2.824.314-2.196 3.451-1.882 3.451 1.255s3.451 4.392 3.765 0c.314-4.392 3.765-2.824 3.922 0 .158 2.819 2.666 4.078 3.293-.314.448-3.137 3.012-3.137 3.765-1.255s2.525 3.137 2.525 3.137"/></symbol>
<symbol id="home" viewBox="0 0 32 32"><path fill="var(--color4, #d31342)" d="M31.618 15.643c.553-.608.5-1.541-.119-2.082L17.863 1.63c-.619-.541-1.611-.53-2.217.026L1.964 14.198a1.446 1.446 0 00-.066 2.079l.343.357c.569.592 1.489.663 2.053.157l1.023-.916v13.406c0 .823.666 1.488 1.488 1.488h5.333c.822 0 1.488-.666 1.488-1.488v-9.379h6.803v9.379c-.012.822.576 1.488 1.398 1.488h5.652c.822 0 1.488-.666 1.488-1.488V16.064l.631.554c.349.307 1.078.061 1.631-.548l.388-.426z"/></symbol>
<symbol id="logo" viewBox="0 0 32 32"><path fill="var(--color1, #d41442)" d="M32 16c0 8.837-7.163 16-16 16S0 24.837 0 16 7.163 0 16 0s16 7.163 16 16z"/><path fill="var(--color2, #fff)" d="M10.88 31.163c.624.21 1.265.384 1.92.517v-2.24h7.04v2.096a15.92 15.92 0 001.92-.604v-1.613c.964-.197 1.748-.604 2.36-1.192.779-.749 1.196-1.712 1.416-2.673.355-1.556.232-3.33.122-4.635.648-.283 1.152-.675 1.488-1.172a2.565 2.565 0 00.34-2.139 3.11 3.11 0 00-1.09-1.618 2.725 2.725 0 00-.85-.447l-.003-.06c-.097-1.743-.232-4.19-1.416-6.259-.826-1.445-1.909-2.467-3.258-3.116-1.332-.641-2.862-.887-4.55-.887-3.392 0-6.439 1.914-7.831 3.936-1.573 2.286-1.847 4.925-1.797 6.727-1.155.766-1.698 1.843-1.521 2.967.143.908.744 1.666 1.538 2.077l-.007.268c-.034 1.314-.075 2.879.374 4.449.339 1.186 1.195 2.067 2.037 2.669a8.35 8.35 0 001.766.956v1.995zm6.521-19.518c-2.039.332-4.425-.055-6.813-2.135 1.223-1.298 3.379-2.469 5.732-2.469 1.513 0 2.731.223 3.718.698a5.261 5.261 0 012.019 1.71c-1.079.923-2.739 1.884-4.656 2.197zm.308 1.894c2.121-.346 3.956-1.33 5.256-2.355.479 1.35.568 2.807.649 4.175H8.606c.003-1.253.202-2.805.902-4.247 2.769 2.328 5.661 2.841 8.201 2.427zm7.845 5.034c-.115.171-.396.429-1.049.627H19.84v.96c0 .298.011.639.022.963.007.2.013.393.016.566.01.499 0 .926-.058 1.276-.059.358-.15.526-.216.598-.033.036-.113.117-.404.117-.504 0-.742-.11-.858-.196-.112-.083-.218-.224-.299-.508-.085-.298-.124-.688-.133-1.19-.006-.305-.001-.596.003-.907.003-.225.007-.46.007-.72v-.96H7.79c-.396-.111-.673-.438-.722-.75-.034-.213.009-.691.851-1.17h16.816l.093-.019c.053-.011.197-.004.395.149.194.15.348.375.41.603a.647.647 0 01-.08.561zM8.622 21.29l.004-.17h7.363c-.003.242-.004.483 0 .703.011.548.052 1.139.207 1.68.159.556.453 1.115 1.001 1.522.544.404 1.226.574 2.002.574.732 0 1.365-.24 1.824-.743.426-.467.606-1.059.692-1.582.087-.53.093-1.103.082-1.624a36.256 36.256 0 00-.015-.531h1.972c.103 1.271.188 2.686-.091 3.906-.167.732-.45 1.309-.874 1.717-.408.392-1.026.705-2.023.777h-8.791a6.327 6.327 0 01-1.745-.869c-.657-.47-1.134-1.029-1.307-1.635-.36-1.259-.331-2.447-.301-3.727z"/></symbol><symbol id="udder" viewBox="0 0 32 32"><path fill="none" stroke="var(--color3, #ffb8ca)" stroke-width="1.882" d="M6.588 14.118l3.451 16.627h11.922l3.137-16.627m-18.51 0h18.51m-18.51 0c.732 3.033 3.137 8.471 9.412 8.471 6.282 0 7.843-5.647 9.098-8.471M15.686 1.255h8.157c.152.304-.216 1.128-.814 1.941-.389.528-.397 1.24.043 1.727.685.759 1.331 1.733.457 2.606-.627.627-1.569.941-2.51-.314-.559-.745-1.671-.605-2.416-.172-.816.475-.684 1.617-1.025 2.498-.388 1.002-1.069 1.922-1.578 1.752-.97.194-1.358-1.045-1.499-2.19-.076-.619-.215-1.261-.706-1.645-.732-.572-1.817-.927-2.5-.244-1.109 1.109-1.882.941-2.51.314-.873-.873-.228-1.848.457-2.606.439-.487.431-1.199.043-1.727-.598-.813-.966-1.637-.814-1.941h8.157"/></symbol>
<symbol id="arrow-header" viewBox="0 0 19 32"><path fill="none" stroke="var(--color1, #d41443)" stroke-linejoin="round" stroke-linecap="round" stroke-width="6.4" d="M3.2 3.2L16 16 3.2 28.8"/></symbol>
<symbol id="quotes" viewBox="0 0 43 32"><path fill="var(--color1, #e1e1e1)" d="M32.014 0c1.929 0 3.75.52 5.464 1.561s3.107 2.537 4.179 4.488C42.686 8 43.2 10.298 43.2 12.943s-.643 5.225-1.929 7.74c-.429.911-1.2 2.081-2.314 3.512a63.368 63.368 0 01-3.214 3.707L31.693 32 28.8 27.187a22.03 22.03 0 005.336-4.683c1.543-1.821 2.314-3.491 2.314-5.008 0-.78-.171-1.409-.514-1.886a8.359 8.359 0 01-5.014 1.626c-1.329 0-2.593-.412-3.793-1.236a8.555 8.555 0 01-2.957-3.122c-.771-1.258-1.157-2.558-1.157-3.902 0-1.518.45-2.97 1.35-4.358a10.222 10.222 0 013.407-3.382C29.143.412 30.558 0 32.015 0zM8.936 0c1.929 0 3.75.52 5.464 1.561s3.107 2.537 4.179 4.488c1.029 1.951 1.543 4.249 1.543 6.894 0 1.864-.236 3.534-.707 5.008-.471 1.518-1.286 3.1-2.443 4.748-1.114 1.561-2.164 2.862-3.15 3.902-.986 1.084-2.7 2.884-5.143 5.398l-2.893-4.813a22.03 22.03 0 005.336-4.683c1.543-1.821 2.314-3.491 2.314-5.008 0-.78-.171-1.409-.514-1.886a8.359 8.359 0 01-5.014 1.626c-1.329 0-2.593-.412-3.793-1.236a8.555 8.555 0 01-2.957-3.122C.387 11.619.001 10.319.001 8.975c0-1.518.429-2.97 1.286-4.358S3.28 2.102 4.694 1.235C6.065.411 7.48-.001 8.937-.001z"/></symbol>
<symbol id="arrow-small-red" viewBox="0 0 26 32"><path fill="none" stroke="var(--color1, #d41443)" stroke-linejoin="round" stroke-linecap="round" stroke-width="6.4" d="M5.172 3.2L19.341 16 5.172 28.8"/></symbol>
<symbol id="arrow-small-white" viewBox="0 0 26 32"><path fill="none" stroke="var(--color2, #fff)" stroke-linejoin="round" stroke-linecap="round" stroke-width="6.4" d="M5.172 3.2L19.341 16 5.172 28.8"/></symbol>
<symbol id="arrow-bold" viewBox="0 0 32 32"><path d="M31 16L16 1v9H0v12h16v9z"/></symbol>
<symbol id="arrow-light" viewBox="0 0 32 32"><path d="M19.414 27.414l10-10a2 2 0 000-2.828l-10-10a2 2 0 10-2.828 2.828L23.172 14H4a2 2 0 100 4h19.172l-6.586 6.586c-.39.39-.586.902-.586 1.414s.195 1.024.586 1.414a2 2 0 002.828 0z"/></symbol>
<symbol id="burger" viewBox="0 0 32 32"><path d="M2 6h28v6H2zm0 8h28v6H2zm0 8h28v6H2z"/></symbol>
<symbol id="cross" viewBox="0 0 32 32"><path d="M31.708 25.708L22 16l9.708-9.708a1 1 0 000-1.414L27.122.292a1 1 0 00-1.414-.001L16 9.999 6.292.291a.998.998 0 00-1.414.001L.292 4.878a1 1 0 000 1.414L10 16 .292 25.708a.999.999 0 000 1.414l4.586 4.586a1 1 0 001.414 0L16 22l9.708 9.708a1 1 0 001.414 0l4.586-4.586a.999.999 0 000-1.414z"/></symbol>
<symbol id="arrow-up" viewBox="0 0 32 32"><path d="M27.414 12.586l-10-10a2 2 0 00-2.828 0l-10 10a2 2 0 102.828 2.828L14 8.828V28a2 2 0 104 0V8.828l6.586 6.586c.39.39.902.586 1.414.586s1.024-.195 1.414-.586a2 2 0 000-2.828z"/></symbol></defs></svg>